HIERARCHY
ROOT Hips
{
	OFFSET -0.001795 -0.223333 0.028219
	CHANNELS 6 Xposition Yposition Zposition Zrotation Yrotation Xrotation 
	JOINT LeftUpLeg
	{
		OFFSET 0.069520 -0.091406 -0.006815
		CHANNELS 3 Zrotation Yrotation Xrotation
		JOINT LeftLeg
		{
			OFFSET 0.034277 -0.375199 -0.004496
			CHANNELS 3 Zrotation Yrotation Xrotation
			JOINT LeftFoot
			{
				OFFSET -0.013596 -0.397961 -0.043693
				CHANNELS 3 Zrotation Yrotation Xrotation
				JOINT LeftToe
				{
					OFFSET 0.026358 -0.055791 0.119288
					CHANNELS 3 Zrotation Yrotation Xrotation
					End Site
					{
						OFFSET 0.000000 0.000000 0.000000
					}
				}
			}
		}
	}
	JOINT RightUpLeg
	{
		OFFSET -0.067670 -0.090522 -0.004320
		CHANNELS 3 Zrotation Yrotation Xrotation
		JOINT RightLeg
		{
			OFFSET -0.038290 -0.382569 -0.008850
			CHANNELS 3 Zrotation Yrotation Xrotation
			JOINT RightFoot
			{
				OFFSET 0.015774 -0.398415 -0.042312
				CHANNELS 3 Zrotation Yrotation Xrotation
				JOINT RightToe
				{
					OFFSET -0.025372 -0.048144 0.123348
					CHANNELS 3 Zrotation Yrotation Xrotation
					End Site
					{
						OFFSET 0.000000 0.000000 0.000000
					}
				}
			}
		}
	}
	JOINT Spine
	{
		OFFSET -0.002533 0.108963 -0.026696
		CHANNELS 3 Zrotation Yrotation Xrotation
		JOINT Spine1
		{
			OFFSET 0.005487 0.135180 0.001092
			CHANNELS 3 Zrotation Yrotation Xrotation
			JOINT Spine2
			{
				OFFSET 0.001457 0.052922 0.025425
				CHANNELS 3 Zrotation Yrotation Xrotation
				JOINT Neck
				{
					OFFSET -0.002778 0.213870 -0.042857
					CHANNELS 3 Zrotation Yrotation Xrotation
					JOINT Head
					{
						OFFSET 0.005152 0.064970 0.051349
						CHANNELS 3 Zrotation Yrotation Xrotation
						End Site
						{
							OFFSET 0.000000 0.000000 0.000000
						}
					}
				}
				JOINT LeftShoulder
				{
					OFFSET 0.078845 0.121749 -0.034090
					CHANNELS 3 Zrotation Yrotation Xrotation
					JOINT LeftArm
					{
						OFFSET 0.090977 0.030469 -0.008868
						CHANNELS 3 Zrotation Yrotation Xrotation
						JOINT LeftForeArm
						{
							OFFSET 0.259612 -0.012772 -0.027456
							CHANNELS 3 Zrotation Yrotation Xrotation
							JOINT LeftHand
							{
								OFFSET 0.249234 0.008986 -0.001171
								CHANNELS 3 Zrotation Yrotation Xrotation
								End Site
								{
									OFFSET 0.000000 0.000000 0.000000
								}
							}
						}
					}
				}
				JOINT RightShoulder
				{
					OFFSET -0.081759 0.118833 -0.038615
					CHANNELS 3 Zrotation Yrotation Xrotation
					JOINT RightArm
					{
						OFFSET -0.096012 0.032551 -0.009143
						CHANNELS 3 Zrotation Yrotation Xrotation
						JOINT RightForeArm
						{
							OFFSET -0.253742 -0.013329 -0.021401
							CHANNELS 3 Zrotation Yrotation Xrotation
							JOINT RightHand
							{
								OFFSET -0.255298 0.007772 -0.005559
								CHANNELS 3 Zrotation Yrotation Xrotation
								End Site
								{
									OFFSET 0.000000 0.000000 0.000000
								}
							}
						}
					}
				}
			}
		}
	}
}
MOTION
Frames: 17
Frame Time: 0.050000
0.770535 0.925827 0.541888 -0.003175 7.721777 6.030224 1.383145 -2.190709 -23.151223 7.476616 -3.155668 19.755042 -2.373648 3.629942 16.648076 0.000000 0.000000 0.000000 -0.346630 2.174156 -26.918604 -14.215454 5.581198 27.696018 7.228867 5.692827 20.520613 0.000000 0.000000 0.000000 1.122638 -3.222179 38.433473 -1.833488 0.545422 8.254267 -3.710089 2.728443 -2.811236 2.439730 1.715450 -30.171532 0.000000 0.000000 0.000000 -28.150111 -42.128020 23.555937 -15.155416 -26.332394 1.057853 44.504111 -31.138508 -11.638984 0.000000 0.000000 0.000000 16.400639 33.052312 18.294750 20.709519 30.783703 2.080072 -50.664974 40.717274 -16.280305 0.000000 0.000000 0.000000 
0.752969 0.927641 0.549893 0.905798 10.546115 4.614565 1.290537 -1.999681 -20.530135 7.897385 -3.083288 17.727608 -4.127520 1.676040 17.288951 0.000000 0.000000 0.000000 0.050193 1.945805 -24.352417 -15.902769 5.795190 26.944503 9.484544 8.672353 22.770054 0.000000 0.000000 0.000000 1.852849 -3.625799 36.645901 -2.310718 0.774513 7.201148 -3.458667 3.257265 -1.917946 2.046442 1.981952 -29.430551 0.000000 0.000000 0.000000 -31.871123 -38.896175 21.363046 -19.043484 -23.059885 1.453756 43.097984 -38.714742 -14.344507 0.000000 0.000000 0.000000 16.950780 31.233287 17.745731 22.218566 28.973864 1.974752 -48.000233 43.476945 -16.338570 0.000000 0.000000 0.000000 
0.734228 0.932267 0.558875 1.502907 13.044969 3.445204 1.571442 -1.706150 -17.840316 8.460477 -2.885508 15.083240 -6.059009 0.057412 19.075300 0.000000 0.000000 0.000000 0.451708 1.754625 -21.504737 -16.583635 5.609094 25.607900 11.506569 11.497884 24.112605 0.000000 0.000000 0.000000 2.259289 -3.769363 34.709024 -2.879963 1.058486 6.370888 -2.869615 3.926825 -1.442453 1.682973 2.262617 -28.787513 0.000000 0.000000 0.000000 -35.189779 -34.477362 17.647874 -22.378534 -19.738780 1.642741 39.249469 -45.473100 -15.570215 0.000000 0.000000 0.000000 17.602739 29.338731 17.199723 22.213248 27.743660 1.679984 -43.852928 46.650759 -15.819760 0.000000 0.000000 0.000000 
0.714213 0.937816 0.567973 2.519136 15.639823 2.845326 1.425521 -1.452933 -15.229594 9.185354 -2.517960 11.537456 -8.237147 -1.331598 21.601035 0.000000 0.000000 0.000000 0.287712 1.477979 -18.388146 -16.250602 4.961969 22.793252 12.078835 12.121658 25.415842 0.000000 0.000000 0.000000 3.159496 -3.872383 31.963934 -4.147329 1.687735 5.810002 -2.867878 4.409438 -0.930963 1.732493 2.427557 -28.724560 0.000000 0.000000 0.000000 -36.335674 -31.935319 14.793720 -25.422051 -15.714750 1.437723 36.705805 -50.569623 -16.508315 0.000000 0.000000 0.000000 18.830049 27.338760 16.897106 23.368713 25.504298 1.302811 -41.897904 49.790157 -15.978443 0.000000 0.000000 0.000000 
0.692172 0.942400 0.576267 3.464488 19.482551 2.310550 2.401159 -1.171485 -13.043097 8.139547 -1.804182 8.206616 -10.657409 -3.001038 23.485559 0.000000 0.000000 0.000000 -0.476394 1.082267 -14.468572 -15.745448 4.246950 19.655854 14.655105 17.531383 23.496525 0.000000 0.000000 0.000000 3.968731 -4.049155 29.754671 -5.105699 2.083012 5.766810 -2.565004 4.895860 -1.638328 1.389519 2.722555 -27.677641 0.000000 0.000000 0.000000 -38.447871 -29.240062 11.563088 -26.933069 -11.794472 1.142184 31.132355 -54.205440 -15.043542 0.000000 0.000000 0.000000 20.336464 24.811854 16.444311 23.040526 24.361914 0.921503 -37.545368 52.452697 -14.695606 0.000000 0.000000 0.000000 
0.667384 0.944413 0.583560 4.428463 23.792404 2.513689 4.037682 -1.038145 -12.119669 6.577174 -1.131676 5.271754 -14.948187 -9.404294 22.357956 0.000000 0.000000 0.000000 -1.467528 0.750491 -11.597434 -16.014109 3.901642 17.746801 19.217942 27.582536 18.884782 0.000000 0.000000 0.000000 5.064725 -4.077320 26.757082 -6.768416 2.722453 6.552281 -2.348843 5.224171 -2.368786 0.449153 3.376282 -28.138410 0.000000 0.000000 0.000000 -37.990861 -27.352736 8.661585 -28.365162 -8.953742 0.922300 27.890887 -56.559561 -14.358849 0.000000 0.000000 0.000000 21.610828 22.488290 16.083006 23.340166 22.661126 0.509977 -32.488789 54.591415 -12.663156 0.000000 0.000000 0.000000 
0.640163 0.944555 0.589756 4.096440 28.479775 2.362892 6.200950 -1.036046 -12.070581 6.328367 -0.871564 3.644333 -16.916021 -13.535983 20.353453 0.000000 0.000000 0.000000 -0.330276 0.754251 -9.993244 -16.636086 3.805728 18.136099 19.865130 33.073804 12.666139 0.000000 0.000000 0.000000 5.842587 -4.096460 24.513276 -7.731771 3.038332 6.017039 -0.593176 5.675187 -2.947275 -0.937244 4.125745 -27.308434 0.000000 0.000000 0.000000 -39.293971 -24.599167 5.099114 -29.147751 -5.095867 0.443182 24.027929 -60.621460 -13.472427 0.000000 0.000000 0.000000 20.322974 21.652839 15.765353 26.245501 21.208623 0.475929 -28.538549 56.747962 -10.784987 0.000000 0.000000 0.000000 
0.612569 0.943924 0.595387 4.286927 34.654520 2.410656 7.621032 -1.153622 -12.347470 4.388473 -0.705250 4.571716 -14.121840 -13.507349 14.379158 0.000000 0.000000 0.000000 0.483815 0.739608 -9.157321 -16.435059 3.436925 19.732195 18.659902 34.431849 7.449669 0.000000 0.000000 0.000000 6.640415 -3.902411 21.516659 -8.125423 2.743520 7.902481 -0.633312 7.112617 -4.596964 -1.800258 4.826909 -27.952695 0.000000 0.000000 0.000000 -38.800276 -24.984172 2.962958 -29.841630 -2.599813 0.525076 26.357139 -62.738417 -16.229099 0.000000 0.000000 0.000000 21.283399 19.917581 16.242489 26.644893 18.996051 -0.152294 -26.769966 59.816539 -10.096505 0.000000 0.000000 0.000000 
0.586556 0.942449 0.600363 4.609405 40.732122 1.443099 8.237128 -1.237059 -12.045398 2.958641 -1.003917 8.601613 -9.227584 -10.607494 7.765930 0.000000 0.000000 0.000000 1.233465 0.656242 -7.216977 -15.897762 2.858421 21.044429 16.810922 33.969487 2.530498 0.000000 0.000000 0.000000 6.123315 -3.904904 21.084611 -8.756145 2.711483 7.912547 -0.001081 7.636147 -5.522997 0.124372 4.230496 -26.535003 0.000000 0.000000 0.000000 -38.436123 -24.039211 0.429502 -29.996395 -0.275101 0.403505 25.894877 -67.217770 -17.903827 0.000000 0.000000 0.000000 22.367254 19.863381 17.506524 28.202692 17.591562 -0.555156 -27.476923 62.365751 -10.837422 0.000000 0.000000 0.000000 
0.563478 0.941552 0.604308 4.872097 47.096158 1.710434 7.990576 -1.413275 -12.783577 1.872689 -1.696856 13.694276 -4.828631 -4.842997 4.877066 0.000000 0.000000 0.000000 1.547859 0.577856 -6.296407 -12.660960 1.618043 20.452551 13.711718 28.696508 -0.256355 0.000000 0.000000 0.000000 5.865497 -3.505181 18.911587 -8.858867 2.080549 9.133400 -0.585317 9.155358 -5.780708 2.155295 3.844206 -26.984560 0.000000 0.000000 0.000000 -36.089316 -25.085273 -0.999813 -31.496054 0.289713 0.731589 29.040442 -68.740294 -21.968291 0.000000 0.000000 0.000000 24.133560 18.845477 19.147133 28.197647 17.928386 -0.901501 -31.484538 64.442079 -13.474463 0.000000 0.000000 0.000000 
0.543424 0.940739 0.606540 4.702732 52.251112 1.763626 7.961894 -1.521009 -12.895540 0.041831 -2.664680 19.341413 -1.212255 -0.685424 2.469432 0.000000 0.000000 0.000000 1.855716 0.549061 -6.024974 -9.675229 0.514838 19.800166 11.668094 24.340978 -1.654169 0.000000 0.000000 0.000000 5.857157 -3.338934 17.700722 -9.448348 1.832137 9.399972 -0.803691 10.454239 -6.343067 3.979722 3.152851 -24.933124 0.000000 0.000000 0.000000 -33.819419 -25.261685 -2.284206 -32.424312 1.699678 0.629770 29.105300 -71.661262 -24.285022 0.000000 0.000000 0.000000 26.294162 17.799443 20.749790 26.822664 19.053955 -1.141526 -37.226986 66.868684 -17.855092 0.000000 0.000000 0.000000 
0.526624 0.940903 0.607264 4.974347 58.234123 2.870468 6.959941 -1.553519 -12.726477 -1.695002 -3.246325 21.991027 0.734241 5.312788 5.677090 0.000000 0.000000 0.000000 1.839158 0.477961 -5.986976 -6.794094 -0.490867 18.066615 9.532649 19.040489 -2.604611 0.000000 0.000000 0.000000 5.628550 -2.752589 15.107273 -9.144060 0.710332 10.776228 -1.826699 12.250730 -7.213249 5.852839 2.487805 -23.511361 0.000000 0.000000 0.000000 -31.815754 -26.178214 -3.615364 -34.057667 3.408186 0.567208 28.088710 -74.479348 -26.295731 0.000000 0.000000 0.000000 27.764375 16.981816 22.788962 25.407569 20.817505 -1.279227 -46.950040 67.969876 -24.810238 0.000000 0.000000 0.000000 
0.512771 0.941010 0.606399 5.041146 62.859289 4.500123 6.951278 -1.673483 -12.987266 -4.599800 -3.564709 24.102881 4.008010 13.420175 11.912599 0.000000 0.000000 0.000000 1.850261 0.448538 -6.855363 -4.572104 -1.100378 16.070097 7.952492 14.832172 -2.862540 0.000000 0.000000 0.000000 5.931770 -2.229920 12.455426 -8.795644 -0.122037 10.955481 -2.341521 13.525967 -7.377020 6.045513 2.553779 -22.579839 0.000000 0.000000 0.000000 -31.702563 -26.200004 -5.598724 -33.520386 6.271566 0.265065 22.493599 -77.925440 -23.610970 0.000000 0.000000 0.000000 26.840637 17.650598 24.375567 25.021216 23.275692 -0.971811 -61.691119 70.014850 -35.964022 0.000000 0.000000 0.000000 
0.502191 0.941477 0.604215 7.129907 68.001455 6.783716 5.426863 -1.412948 -11.254456 -5.435606 -3.761382 23.894467 7.430513 17.215429 14.271184 0.000000 0.000000 0.000000 1.645633 0.282794 -5.651917 -3.514064 -1.115905 12.920813 6.143111 9.767238 -3.274697 0.000000 0.000000 0.000000 5.386556 -1.826321 10.958742 -8.997589 -0.843387 11.116370 -3.386679 14.741919 -7.306163 8.045014 1.692861 -21.367656 0.000000 0.000000 0.000000 -30.153227 -27.320516 -6.656973 -33.927137 8.428084 0.037942 23.540274 -80.886189 -27.068990 0.000000 0.000000 0.000000 27.573639 17.378953 26.376617 21.684178 27.561495 -0.899160 -84.893704 68.413054 -52.703402 0.000000 0.000000 0.000000 
0.494306 0.942056 0.600532 8.901030 73.393998 9.041918 4.628872 -1.173293 -9.162605 -3.367581 -3.114890 19.593388 7.402755 15.703772 13.319852 0.000000 0.000000 0.000000 1.693596 0.161347 -4.952152 -2.410645 -1.238907 10.411975 4.321813 4.707237 -3.048803 0.000000 0.000000 0.000000 5.029668 -1.366052 8.996759 -8.532369 -1.780139 10.885402 -3.763233 15.960928 -6.686504 9.548211 1.188006 -20.825007 0.000000 0.000000 0.000000 -29.764626 -28.070901 -8.282199 -33.681451 11.034823 -0.282693 7.572753 -83.394304 -14.249670 0.000000 0.000000 0.000000 26.516970 17.712617 27.677663 19.668546 31.581589 -0.574392 -98.737878 63.985775 -59.175350 0.000000 0.000000 0.000000 
0.488388 0.942818 0.594749 11.560074 79.046501 12.872595 4.087819 -1.084655 -8.101033 -0.038508 -2.018119 13.454287 4.827378 11.705640 12.041400 0.000000 0.000000 0.000000 2.049910 0.108583 -5.064928 -1.828612 -1.239757 8.147474 2.324182 -0.561294 -2.299312 0.000000 0.000000 0.000000 5.171293 -1.066054 7.116181 -8.885053 -3.151312 12.160633 -5.266453 17.524414 -8.633223 11.110383 0.261710 -19.867913 0.000000 0.000000 0.000000 -28.515746 -29.846052 -8.680694 -33.116634 12.558231 -0.265320 -9.712058 -84.861319 0.423104 0.000000 0.000000 0.000000 26.898866 16.989467 29.211976 14.358200 36.188005 -1.149855 -105.836940 57.729723 -58.125156 0.000000 0.000000 0.000000 
0.483362 0.943181 0.586265 22.879644 83.992402 24.103871 3.492642 -0.929115 -5.720511 1.765408 -0.877342 6.624967 0.112434 5.989186 11.019093 0.000000 0.000000 0.000000 2.017259 -0.047963 -4.214579 -2.086253 -1.078696 6.590959 0.549461 -5.405302 -1.708974 0.000000 0.000000 0.000000 4.547665 -0.852788 6.413108 -8.561220 -3.798610 11.293743 -5.883715 19.143693 -8.631985 11.973899 -0.034383 -19.560661 0.000000 0.000000 0.000000 -27.978827 -31.755669 -9.947633 -32.573881 14.926844 -0.322204 -34.669421 -84.552245 22.472686 0.000000 0.000000 0.000000 25.721589 17.397058 30.652503 9.220392 38.629733 -1.913203 -104.851764 50.821849 -49.622178 0.000000 0.000000 0.000000 
